<svg width="12" height="12" viewBox="0 0 12 12" fill="none" xmlns="http://www.w3.org/2000/svg">
<path d="M2.625 0C2.72446 0 2.81984 0.0395088 2.89016 0.109835C2.96049 0.180161 3 0.275544 3 0.375V1H9V0.375C9 0.275544 9.03951 0.180161 9.10983 0.109835C9.18016 0.0395088 9.27554 0 9.375 0C9.47446 0 9.56984 0.0395088 9.64017 0.109835C9.71049 0.180161 9.75 0.275544 9.75 0.375V1H10.5C10.8978 1 11.2794 1.15804 11.5607 1.43934C11.842 1.72064 12 2.10218 12 2.5V10.5C12 10.8978 11.842 11.2794 11.5607 11.5607C11.2794 11.842 10.8978 12 10.5 12H1.5C1.10218 12 0.720644 11.842 0.43934 11.5607C0.158035 11.2794 0 10.8978 0 10.5V2.5C0 2.10218 0.158035 1.72064 0.43934 1.43934C0.720644 1.15804 1.10218 1 1.5 1H2.25V0.375C2.25 0.275544 2.28951 0.180161 2.35984 0.109835C2.43016 0.0395088 2.52554 0 2.625 0ZM1.5 1.75C1.30109 1.75 1.11032 1.82902 0.96967 1.96967C0.829018 2.11032 0.75 2.30109 0.75 2.5V10.5C0.75 10.6989 0.829018 10.8897 0.96967 11.0303C1.11032 11.171 1.30109 11.25 1.5 11.25H10.5C10.6989 11.25 10.8897 11.171 11.0303 11.0303C11.171 10.8897 11.25 10.6989 11.25 10.5V2.5C11.25 2.30109 11.171 2.11032 11.0303 1.96967C10.8897 1.82902 10.6989 1.75 10.5 1.75H1.5Z" fill="#A06E57"/>
<path d="M2 3.375C2 3.27554 2.03951 3.18016 2.10984 3.10984C2.18016 3.03951 2.27554 3 2.375 3H9.875C9.97446 3 10.0698 3.03951 10.1402 3.10984C10.2105 3.18016 10.25 3.27554 10.25 3.375V4.125C10.25 4.22446 10.2105 4.31984 10.1402 4.39016C10.0698 4.46049 9.97446 4.5 9.875 4.5H2.375C2.27554 4.5 2.18016 4.46049 2.10984 4.39016C2.03951 4.31984 2 4.22446 2 4.125V3.375Z" fill="#A06E57"/>
</svg>
