<svg width="12" height="12" viewBox="0 0 12 12" fill="none" xmlns="http://www.w3.org/2000/svg">
<path d="M5.99875 3.43452C4.57904 3.43452 3.43327 4.58029 3.43327 6C3.43327 7.41971 4.57904 8.56548 5.99875 8.56548C7.41846 8.56548 8.56423 7.41971 8.56423 6C8.56423 4.58029 7.41846 3.43452 5.99875 3.43452ZM5.99875 7.66738C5.08063 7.66738 4.33137 6.91812 4.33137 6C4.33137 5.08188 5.08063 4.33262 5.99875 4.33262C6.91687 4.33262 7.66613 5.08188 7.66613 6C7.66613 6.91812 6.91687 7.66738 5.99875 7.66738ZM8.6693 2.73154C8.33783 2.73154 8.07015 2.99922 8.07015 3.3307C8.07015 3.66217 8.33783 3.92985 8.6693 3.92985C9.00078 3.92985 9.26846 3.66342 9.26846 3.3307C9.26856 3.25199 9.25313 3.17403 9.22305 3.10129C9.19298 3.02856 9.14885 2.96247 9.09319 2.90681C9.03753 2.85115 8.97144 2.80702 8.89871 2.77695C8.82597 2.74687 8.74801 2.73144 8.6693 2.73154ZM10.9996 6C10.9996 5.30953 11.0059 4.62532 10.9671 3.93611C10.9283 3.13556 10.7457 2.42508 10.1603 1.83969C9.57366 1.25304 8.86444 1.07167 8.06389 1.03289C7.37343 0.994118 6.68922 1.00037 6 1.00037C5.30953 1.00037 4.62532 0.994118 3.93611 1.03289C3.13556 1.07167 2.42508 1.25429 1.83969 1.83969C1.25304 2.42634 1.07167 3.13556 1.03289 3.93611C0.994118 4.62657 1.00037 5.31078 1.00037 6C1.00037 6.68922 0.994118 7.37468 1.03289 8.06389C1.07167 8.86444 1.25429 9.57491 1.83969 10.1603C2.42634 10.747 3.13556 10.9283 3.93611 10.9671C4.62657 11.0059 5.31078 10.9996 6 10.9996C6.69047 10.9996 7.37468 11.0059 8.06389 10.9671C8.86444 10.9283 9.57492 10.7457 10.1603 10.1603C10.747 9.57366 10.9283 8.86444 10.9671 8.06389C11.0071 7.37468 10.9996 6.69047 10.9996 6ZM9.89888 8.94949C9.80757 9.17715 9.6975 9.34726 9.52113 9.52238C9.34476 9.69875 9.1759 9.80882 8.94824 9.90014C8.2903 10.1616 6.72799 10.1028 5.99875 10.1028C5.26951 10.1028 3.70595 10.1616 3.04801 9.90139C2.82035 9.81007 2.65024 9.7 2.47512 9.52363C2.29875 9.34726 2.18868 9.1784 2.09736 8.95074C1.83719 8.29155 1.89598 6.72924 1.89598 6C1.89598 5.27076 1.83719 3.7072 2.09736 3.04926C2.18868 2.8216 2.29875 2.65149 2.47512 2.47637C2.65149 2.30125 2.82035 2.18993 3.04801 2.09861C3.70595 1.83844 5.26951 1.89723 5.99875 1.89723C6.72799 1.89723 8.29155 1.83844 8.94949 2.09861C9.17715 2.18993 9.34726 2.3 9.52238 2.47637C9.69875 2.65274 9.80882 2.8216 9.90014 3.04926C10.1603 3.7072 10.1015 5.27076 10.1015 6C10.1015 6.72924 10.1603 8.29155 9.89888 8.94949Z" fill="#A06E57"/>
</svg>
