<svg width="12" height="12" viewBox="0 0 12 12" fill="none" xmlns="http://www.w3.org/2000/svg">
<g clip-path="url(#clip0)">
<path fill-rule="evenodd" clip-rule="evenodd" d="M11.8628 0.0847394C11.9057 0.119941 11.9403 0.164239 11.964 0.214433C11.9877 0.264627 12 0.319466 12 0.374989V10.875C11.9999 10.9616 11.9699 11.0456 11.9149 11.1126C11.86 11.1796 11.7835 11.2255 11.6985 11.2425L7.9485 11.9925C7.89998 12.0021 7.85002 12.0021 7.8015 11.9925L4.125 11.2575L0.4485 11.9925C0.394116 12.0034 0.337999 12.002 0.28419 11.9886C0.230382 11.9752 0.180222 11.95 0.137325 11.9148C0.094427 11.8797 0.05986 11.8354 0.0361138 11.7853C0.0123676 11.7352 3.34895e-05 11.6804 0 11.625L0 1.12499C5.23365e-05 1.03833 0.0301171 0.954363 0.0850825 0.887365C0.140048 0.820367 0.216521 0.774475 0.3015 0.757489L4.0515 0.0074894C4.10002 -0.00220865 4.14998 -0.00220865 4.1985 0.0074894L7.875 0.742489L11.5515 0.0074894C11.6059 -0.00344874 11.662 -0.0021936 11.7158 0.0111644C11.7696 0.0245224 11.8198 0.0496507 11.8628 0.0847394ZM7.5 1.43249L4.5 0.832489V10.5675L7.5 11.1675V1.43249ZM8.25 11.1675L11.25 10.5675V0.832489L8.25 1.43249V11.1675ZM3.75 10.5675V0.832489L0.75 1.43249V11.1675L3.75 10.5675Z" fill="#A06E57"/>
</g>
<defs>
<clipPath id="clip0">
<rect width="12" height="12" fill="white"/>
</clipPath>
</defs>
</svg>
