<svg width="40" height="40" viewBox="0 0 40 40" fill="none" xmlns="http://www.w3.org/2000/svg">
<path d="M17.5 3.33337C18.3333 2.50002 21.25 0.833374 22.5 0.833374C23.0456 0.833374 25.4172 0.833374 27.9167 0.833374M34.5833 0.833374C34.5833 0.833374 33.3495 0.833374 31.6667 0.833374M27.9167 0.833374V6.25002M27.9167 0.833374C29.2109 0.833374 30.5395 0.833374 31.6667 0.833374M27.9167 6.25002H31.6667M27.9167 6.25002H25.8333C25.8333 6.25002 25.8333 8.28162 25.8333 9.58337M31.6667 0.833374V6.25002M31.6667 6.25002H33.75V9.58337M25.8333 9.58337C28.925 9.58337 33.75 9.58337 33.75 9.58337M25.8333 9.58337C25 9.58337 24.1667 9.58337 23.3333 10C22.5 10.4167 22.0783 10.8434 21.6667 11.6667C21.25 12.5 21.25 16.6667 21.25 16.6667M33.75 9.58337C34.5833 9.58337 35.4167 9.58337 36.25 10C37.0833 10.4167 37.505 10.8434 37.9167 11.6667C38.3333 12.5 38.3333 16.6667 38.3333 16.6667M21.25 16.6667C26.9444 16.6667 32.6389 16.6667 38.3333 16.6667M21.25 16.6667C18.75 19.5834 17.9167 24.5834 21.25 24.5834M21.25 16.6667C23.75 19.5834 24.5833 24.5834 21.25 24.5834M22.5 38.9489H38.3333V20.8334V16.6667M22.5 38.9489C25.8333 37.9104 33.1617 33.474 35.6617 31.3907C37.02 30.2588 35.8043 27.5312 33.5464 28.3112M22.5 38.9489C18.9088 40.0677 12.2335 37.5867 9.16667 36.6667C8.75 36.5417 2.5 38.3334 2.5 38.3334V31.6667C5.41667 30 7.63889 29.3056 10 28.3334C12.6667 27.3334 15.8333 27.0834 21.25 27.5M21.25 27.5C22.127 27.5675 22.8117 27.7395 23.3333 27.9772M21.25 27.5V24.5834M23.3333 27.9772C25.8333 26.25 27.5 25 29.1667 27.5M23.3333 27.9772C24.515 28.5158 24.86 29.3918 24.7082 30.1551M29.1667 27.5L24.7082 30.1551M29.1667 27.5C30.4167 26.6667 32.5 26.25 33.5464 28.3112M24.7082 30.1551C24.545 30.9761 23.8069 31.6667 22.9167 31.6667H14.5833L22.9167 34.1667L33.1617 28.474C33.2929 28.4084 33.4212 28.3544 33.5464 28.3112M17.0833 5.83337C14.7143 7.61115 13.9247 12.5 17.0833 12.5C20.242 12.5 19.4523 7.61115 17.0833 5.83337Z" stroke="#A06E57" stroke-width="1.2" stroke-linecap="round" stroke-linejoin="round"/>
</svg>
