<svg width="40" height="40" viewBox="0 0 40 40" fill="none" xmlns="http://www.w3.org/2000/svg">
<path d="M32.0834 14.5833C34.3846 14.5833 36.25 12.7178 36.25 10.4166C36.25 8.11544 34.3846 6.24996 32.0834 6.24996C29.7822 6.24996 27.9167 8.11544 27.9167 10.4166C27.9167 12.7178 29.7822 14.5833 32.0834 14.5833ZM32.0834 14.5833C32.0834 14.5833 29.1667 14.5833 27.5 14.5833C25.8334 14.5833 25 15.4166 25 17.0833C25 18.75 25 25.6223 25 26.25C25 27.0833 25.4167 27.5 26.25 27.5C27.0834 27.5 27.0834 27.5 27.0834 27.5M32.0834 14.5833H36.6667C38.3334 14.5833 39.1667 15.4166 39.1667 17.0833L39.1662 26.2995M27.9167 19.1666V22.9166M36.25 19.1666V22.9166M27.9167 22.9166V27.5H27.0834M27.9167 22.9166H36.25M36.25 22.9166V27.5H37.0834M27.0834 27.5C27.0834 27.5 26.9792 27.9166 26.6667 29.1666C26.3542 30.4166 26.6667 30.8333 27.5 30.8333C28.3334 30.8333 29.1667 30.8333 29.1667 30.8333M29.1667 30.8333H32.0834H35M29.1667 30.8333L30.4167 39.1666H32.0834H33.75L35 30.8333M37.0834 27.5H37.9167C38.75 27.5 39.1667 27.0833 39.1667 26.25M37.0834 27.5L37.5 29.1666C37.8125 30.4166 37.5 30.8333 36.6667 30.8333H35M7.91671 14.5833C10.2179 14.5833 12.0834 12.7178 12.0834 10.4166C12.0834 8.11544 10.2179 6.24996 7.91671 6.24996C5.61552 6.24996 3.75004 8.11544 3.75004 10.4166C3.75004 12.7178 5.61552 14.5833 7.91671 14.5833ZM7.91671 14.5833C7.91671 14.5833 5.00004 14.5833 3.33337 14.5833C1.66671 14.5833 0.833374 15.4166 0.833374 17.0833C0.833374 18.75 0.833374 25.6223 0.833374 26.25C0.833374 27.0833 1.25004 27.5 2.08337 27.5C2.63893 27.5 3.19449 27.5 3.75004 27.5M7.91671 14.5833H12.5C14.1667 14.5833 15 15.4166 15 17.0833L14.9995 26.2995M3.75004 27.5V24.5833M3.75004 27.5V39.1666H7.91671M3.75004 19.1666V24.5833M12.0834 27.5V24.5833M12.0834 27.5H13.75C14.5834 27.5 15 27.0833 15 26.25M12.0834 27.5V39.1666H7.91671M12.0834 19.1666V24.5833M3.75004 24.5833H12.0834M7.91671 29.1666V39.1666M10.4167 2.91663H29.1667M10.4167 2.91663L12.0834 1.66663M10.4167 2.91663L12.0834 4.16663M29.1667 2.91663L27.5 1.66663M29.1667 2.91663L27.5 4.16663M15.8334 7.08329L16.6667 6.24996V10.4166M19.1667 10.4166V6.24996L21.25 10.4166L23.3334 6.24996V10.4166" stroke="#A06E57" stroke-width="1.2" stroke-linecap="round" stroke-linejoin="round"/>
</svg>
