<svg width="20" height="20" viewBox="0 0 20 20" fill="none" xmlns="http://www.w3.org/2000/svg">
<path d="M19.1667 9.92396C19.1667 9.87895 19.1667 9.82779 19.1647 9.76846C19.1626 9.60272 19.1585 9.41652 19.1544 9.21805C19.1381 8.64718 19.1094 8.07835 19.0644 7.54227C19.003 6.80361 18.913 6.18773 18.7902 5.7253C18.6607 5.24272 18.4067 4.8026 18.0538 4.44892C17.7008 4.09524 17.2612 3.8404 16.7789 3.70986C16.1998 3.55436 15.0663 3.45819 13.4703 3.39885C12.7112 3.3702 11.8988 3.35179 11.0865 3.34156C10.8021 3.33747 10.5382 3.33542 10.3008 3.33337H9.69926C9.46191 3.33542 9.19796 3.33747 8.91354 3.34156C8.10123 3.35179 7.28892 3.3702 6.5298 3.39885C4.93382 3.46023 3.79822 3.5564 3.22121 3.70986C2.73873 3.84008 2.29895 4.09481 1.94595 4.44854C1.59294 4.80227 1.3391 5.24256 1.20986 5.7253C1.08505 6.18773 0.997064 6.80361 0.935681 7.54227C0.890666 8.07835 0.86202 8.64718 0.845651 9.21805C0.839512 9.41652 0.837466 9.60272 0.83542 9.76846C0.83542 9.82779 0.833374 9.87895 0.833374 9.92396V10.0385C0.833374 10.0836 0.833374 10.1347 0.83542 10.1941C0.837466 10.3598 0.841559 10.546 0.845651 10.7445C0.86202 11.3153 0.890666 11.8842 0.935681 12.4202C0.997064 13.1589 1.08709 13.7748 1.20986 14.2372C1.47177 15.2173 2.24111 15.9907 3.22121 16.2526C3.79822 16.4082 4.93382 16.5043 6.5298 16.5637C7.28892 16.5923 8.10123 16.6107 8.91354 16.621C9.19796 16.625 9.46191 16.6271 9.69926 16.6291H10.3008C10.5382 16.6271 10.8021 16.625 11.0865 16.621C11.8988 16.6107 12.7112 16.5923 13.4703 16.5637C15.0663 16.5023 16.2019 16.4061 16.7789 16.2526C17.759 15.9907 18.5283 15.2194 18.7902 14.2372C18.915 13.7748 19.003 13.1589 19.0644 12.4202C19.1094 11.8842 19.1381 11.3153 19.1544 10.7445C19.1606 10.546 19.1626 10.3598 19.1647 10.1941C19.1647 10.1347 19.1667 10.0836 19.1667 10.0385V9.92396ZM17.6935 10.0304C17.6935 10.0733 17.6935 10.1204 17.6914 10.1756C17.6894 10.3352 17.6853 10.5112 17.6812 10.7015C17.6669 11.2458 17.6382 11.79 17.5953 12.2954C17.54 12.9543 17.4623 13.4945 17.3661 13.8566C17.2393 14.3293 16.8669 14.7037 16.3962 14.8285C15.9666 14.9431 14.8842 15.0352 13.413 15.0904C12.6682 15.1191 11.8661 15.1375 11.0661 15.1477C10.7858 15.1518 10.5259 15.1539 10.2926 15.1539H9.70744L8.93401 15.1477C8.13397 15.1375 7.33393 15.1191 6.58709 15.0904C5.11593 15.0332 4.03148 14.9431 3.60383 14.8285C3.13322 14.7017 2.76083 14.3293 2.63397 13.8566C2.5378 13.4945 2.46005 12.9543 2.4048 12.2954C2.36183 11.79 2.33523 11.2458 2.31887 10.7015C2.31273 10.5112 2.31068 10.3332 2.30863 10.1756C2.30863 10.1204 2.30659 10.0713 2.30659 10.0304V9.93215C2.30659 9.88918 2.30659 9.84212 2.30863 9.78687C2.31068 9.62727 2.31477 9.45131 2.31887 9.26102C2.33319 8.71674 2.36183 8.17247 2.4048 7.66708C2.46005 7.00823 2.5378 6.46805 2.63397 6.10588C2.76083 5.63323 3.13322 5.25878 3.60383 5.13397C4.03352 5.01939 5.11593 4.92731 6.58709 4.87206C7.33189 4.84342 8.13397 4.825 8.93401 4.81477C9.21433 4.81068 9.47418 4.80863 9.70744 4.80863H10.2926L11.0661 4.81477C11.8661 4.825 12.6661 4.84342 13.413 4.87206C14.8842 4.92936 15.9686 5.01939 16.3962 5.13397C16.8669 5.26083 17.2393 5.63323 17.3661 6.10588C17.4623 6.46805 17.54 7.00823 17.5953 7.66708C17.6382 8.17247 17.6648 8.71674 17.6812 9.26102C17.6874 9.45131 17.6894 9.62932 17.6914 9.78687C17.6914 9.84212 17.6935 9.89122 17.6935 9.93215V10.0304ZM8.17898 12.7231L12.926 9.96079L8.17898 7.23944V12.7231Z" fill="#A06E57"/>
</svg>
