<svg width="40" height="40" viewBox="0 0 40 40" fill="none" xmlns="http://www.w3.org/2000/svg">
<path d="M5.83337 16.0674C5.83337 14.6379 5.83337 13.5885 5.83337 13.3333C5.83337 12.0833 6.66671 10.8333 9.16671 10.4166C12.4803 9.86436 15.7344 9.16663 20 9.16663C24.2657 9.16663 27.5198 9.86436 30.8334 10.4166C33.3334 10.8333 34.1667 12.0833 34.1667 13.3333C34.1667 13.5885 34.1667 14.6379 34.1667 16.0674M5.83337 16.0674C4.16671 15.7116 0.833374 16 0.833374 20C0.833374 25 5.00004 24.1666 5.83337 26.6666M5.83337 16.0674C5.83337 19.2356 5.83337 24.2712 5.83337 26.6666M5.83337 26.6666C5.83337 27.2852 5.83337 27.7278 5.83337 27.9166C5.83337 29.1666 7.08337 30.4166 8.33337 30.4166C9.58337 30.4166 20 30.4166 20 30.4166C20 30.4166 30.4167 30.4166 31.6667 30.4166C32.9167 30.4166 34.1667 29.1666 34.1667 27.9166C34.1667 27.7278 34.1667 27.2852 34.1667 26.6666M12.9167 18.3333C16.25 17.9166 17 17.5 20 17.5C23 17.5 23.75 17.9166 27.0834 18.3333M12.9167 22.9166C16.25 22.5 17 22.0833 20 22.0833C23 22.0833 23.75 22.5 27.0834 22.9166M34.1667 16.0674C35.8334 15.7116 39.1667 16 39.1667 20C39.1667 25 35 24.1666 34.1667 26.6666M34.1667 16.0674C34.1667 19.2356 34.1667 24.2712 34.1667 26.6666M20 27.0833C20 27.0833 11.6667 27.0833 10.8334 27.0833C10 27.0833 9.58337 26.6666 9.58337 25.8333C9.58337 25 9.58337 15.6947 9.58337 15C9.58337 14.1666 10 13.9583 11.6667 13.75C15 13.3333 16.25 12.9166 20 12.9166C23.75 12.9166 25 13.3333 28.3334 13.75C30 13.9583 30.4167 14.1666 30.4167 15C30.4167 15.6947 30.4167 25 30.4167 25.8333C30.4167 26.6666 30 27.0833 29.1667 27.0833C28.3334 27.0833 20 27.0833 20 27.0833Z" stroke="#A06E57" stroke-width="1.2" stroke-linecap="round" stroke-linejoin="round"/>
</svg>
