<svg width="98" height="98" viewBox="0 0 98 98" fill="none" xmlns="http://www.w3.org/2000/svg">
<path d="M43.1866 25.088V24.448C43.1866 24.064 43.0373 23.7653 42.7386 23.552C42.12 22.976 41.2986 22.688 40.2746 22.688C38.8666 22.688 37.8426 23.1787 37.2026 24.16C36.8186 24.736 36.6266 25.28 36.6266 25.792C36.6266 26.2827 36.744 26.816 36.9786 27.392C37.2346 27.968 37.928 28.96 39.0586 30.368C40.2106 31.776 40.9253 32.8427 41.2026 33.568C41.48 34.2933 41.6186 34.9013 41.6186 35.392C41.6186 36.7573 41.064 37.952 39.9546 38.976C39.2506 39.6373 38.4186 40.1493 37.4586 40.512C36.52 40.896 35.4853 41.088 34.3546 41.088C33.224 41.088 32.0933 40.8 30.9626 40.224C29.832 39.648 29.128 38.7733 28.8506 37.6C28.808 37.3653 28.7866 37.0667 28.7866 36.704C28.7866 36.32 28.904 35.7973 29.1386 35.136C29.3946 34.4747 29.7893 33.9413 30.3226 33.536C30.344 33.5147 30.3866 33.536 30.4506 33.6C30.5786 33.7067 30.6 33.8027 30.5146 33.888C30.1093 34.3573 29.9066 34.8907 29.9066 35.488C29.9066 36.2773 30.152 37.0347 30.6426 37.76C31.1333 38.4427 31.816 39.008 32.6906 39.456C33.6506 39.9467 34.6426 40.192 35.6666 40.192C37.1813 40.192 38.3013 39.6373 39.0266 38.528C39.432 37.8667 39.6346 37.184 39.6346 36.48C39.6346 35.7547 39.5066 35.04 39.2506 34.336C38.9946 33.6107 38.4613 32.5867 37.6506 31.264C36.8613 29.92 36.424 29.1733 36.3386 29.024C35.912 28.2133 35.6986 27.4133 35.6986 26.624C35.6986 25.8133 35.944 25.056 36.4346 24.352C36.9466 23.648 37.5973 23.0933 38.3866 22.688C39.2613 22.24 40.168 22.016 41.1066 22.016C42.4293 22.016 43.5066 22.4747 44.3386 23.392C44.4453 23.584 44.4986 23.8613 44.4986 24.224C44.4986 24.5653 44.424 24.864 44.2746 25.12C43.72 25.9307 43.368 26.6027 43.2186 27.136C42.92 27.328 42.7173 27.36 42.6106 27.232C42.9946 26.464 43.1866 25.7493 43.1866 25.088ZM53.4321 35.264C53.4748 35.3067 53.4961 35.392 53.4961 35.52C53.4961 35.648 53.3468 35.9147 53.0481 36.32C51.1495 38.8373 49.3895 40.096 47.7681 40.096C47.2561 40.096 47.0001 39.8933 47.0001 39.488C47.0001 38.7413 47.4161 37.7173 48.2481 36.416C47.5015 37.2053 46.6481 38.016 45.6881 38.848C44.7281 39.6587 43.8321 40.064 43.0001 40.064C42.6161 40.064 42.4241 39.8293 42.4241 39.36C42.4241 39.2533 42.4348 39.1787 42.4561 39.136C42.6055 37.92 43.0961 36.64 43.9281 35.296C45.5921 32.608 47.3201 31.264 49.1121 31.264H52.7921C52.8988 31.264 52.9521 31.3067 52.9521 31.392C52.9521 31.5627 52.8561 31.648 52.6641 31.648C52.3655 31.648 51.9921 32 51.5441 32.704C51.0961 33.3867 50.4988 34.4533 49.7521 35.904C49.0268 37.3333 48.6641 38.24 48.6641 38.624C48.6641 38.9867 48.8135 39.168 49.1121 39.168C49.6028 39.168 50.2855 38.7413 51.1601 37.888C51.6295 37.3973 51.9815 37.0133 52.2161 36.736C52.4508 36.4587 52.6001 36.2773 52.6641 36.192C52.7495 36.1067 53.0055 35.7973 53.4321 35.264ZM50.0081 32.288C50.0081 31.8827 49.7308 31.68 49.1761 31.68C48.6428 31.68 48.0455 31.9893 47.3841 32.608C46.7228 33.2267 45.9975 34.2293 45.2081 35.616C44.4401 36.9813 44.0561 37.9733 44.0561 38.592C44.0561 38.848 44.1415 38.976 44.3121 38.976C44.9308 38.976 46.0295 38.0373 47.6081 36.16C49.2081 34.2613 50.0081 32.9707 50.0081 32.288ZM57.1424 39.584C56.0757 40.2453 55.2757 40.3627 54.7424 39.936C54.465 39.7013 54.337 39.2747 54.3584 38.656C54.3584 36.8213 54.6784 35.0507 55.3184 33.344C55.0197 33.7707 54.561 34.3893 53.9424 35.2C53.3237 35.9893 53.0037 36.3947 52.9824 36.416C52.833 36.6293 52.7584 36.608 52.7584 36.352C52.7584 36.1813 52.8117 36.032 52.9184 35.904C54.113 34.304 55.105 32.8853 55.8944 31.648C56.6624 31.5413 57.185 31.36 57.4624 31.104C57.5477 31.0187 57.6117 30.976 57.6544 30.976C57.7184 30.976 57.7504 31.0187 57.7504 31.104C57.7504 31.1893 57.7184 31.2747 57.6544 31.36C57.2704 31.936 56.833 33.024 56.3424 34.624C55.8517 36.224 55.6064 37.408 55.6064 38.176C55.6064 38.9227 55.7877 39.296 56.1504 39.296C57.0037 39.296 58.113 38.208 59.4784 36.032C60.4597 34.432 60.9717 33.1733 61.0144 32.256C61.0144 31.7653 60.929 31.4667 60.7584 31.36C60.5877 31.296 60.5237 31.232 60.5664 31.168C60.6304 31.104 60.6944 31.072 60.7584 31.072C60.8224 31.072 60.9184 31.0933 61.0464 31.136C61.1744 31.1787 61.2917 31.2213 61.3984 31.264C61.761 31.4347 61.985 31.616 62.0704 31.808C62.1557 31.9787 62.1984 32.192 62.1984 32.448C62.1984 33.216 61.5157 34.496 60.1504 36.288C58.785 38.08 57.7824 39.1787 57.1424 39.584ZM64.1486 36.192C63.8286 37.024 63.6686 37.8027 63.6686 38.528C63.6686 39.232 64.106 39.584 64.9806 39.584C65.3006 39.584 65.7166 39.488 66.2286 39.296C67.0606 39.0187 67.9246 38.4853 68.8206 37.696C69.7166 36.9067 70.4526 36.1387 71.0286 35.392C71.0926 35.456 71.1246 35.5413 71.1246 35.648C71.1246 35.7547 71.05 35.9147 70.9006 36.128C70.1113 37.216 69.13 38.176 67.9566 39.008C66.7833 39.84 65.5886 40.256 64.3726 40.256C62.794 40.256 62.0046 39.68 62.0046 38.528C62.0046 37.6107 62.4953 36.3413 63.4766 34.72C64.0313 33.8453 64.8206 33.0347 65.8446 32.288C66.8686 31.52 67.85 31.136 68.7886 31.136C69.7273 31.136 70.1966 31.584 70.1966 32.48C70.1966 33.4187 69.8233 34.1333 69.0766 34.624C68.3513 35.0933 67.5193 35.4773 66.5806 35.776C65.6633 36.0533 64.8526 36.192 64.1486 36.192ZM64.4046 35.552C64.5326 35.552 64.7673 35.552 65.1086 35.552C65.4713 35.552 65.898 35.4773 66.3886 35.328C67.6046 34.9653 68.394 34.2827 68.7566 33.28C68.8633 32.9813 68.9166 32.704 68.9166 32.448C68.9166 32.1707 68.8313 31.9787 68.6606 31.872C68.49 31.744 68.3406 31.68 68.2126 31.68C66.826 31.7013 65.5566 32.992 64.4046 35.552ZM20.927 60.232L21.919 60.264C22.751 59.1333 23.583 57.6507 24.415 55.816C24.607 55.7947 24.9057 55.6773 25.311 55.464C25.7163 55.2293 26.0043 55.0267 26.175 54.856C26.367 54.664 26.4843 54.568 26.527 54.568C26.591 54.568 26.623 54.6 26.623 54.664C26.623 54.7067 26.5377 54.824 26.367 55.016C26.1963 55.208 25.7697 55.848 25.087 56.936C24.4257 58.0027 23.8177 59.112 23.263 60.264H25.855C26.0683 60.264 26.1857 60.296 26.207 60.36C26.2283 60.424 26.1537 60.488 25.983 60.552C25.8337 60.5947 25.6843 60.6373 25.535 60.68C25.407 60.7227 25.1083 60.7653 24.639 60.808C23.5937 60.872 22.943 61.0853 22.687 61.448C22.4523 61.7893 22.0363 62.6853 21.439 64.136C20.3297 66.824 20.159 68.168 20.927 68.168C21.5883 68.168 22.8043 67.144 24.575 65.096L25.183 64.328C25.2257 64.392 25.247 64.4987 25.247 64.648C25.247 64.776 25.1297 65 24.895 65.32C22.9323 67.8373 21.1617 69.096 19.583 69.096C19.071 69.096 18.815 68.8933 18.815 68.488C18.815 67.976 19.231 66.888 20.063 65.224L21.791 61.352C19.615 63.9973 18.5057 65.352 18.463 65.416C18.3137 65.6293 18.239 65.608 18.239 65.352C18.239 65.1813 18.2923 65.032 18.399 64.904C19.8497 63.0907 20.8523 61.8213 21.407 61.096C21.215 61.096 20.639 61.1493 19.679 61.256C19.4657 61.256 19.5403 61.0853 19.903 60.744C20.287 60.4027 20.5537 60.232 20.703 60.232H20.927ZM32.4228 60.008C32.8494 60.008 33.0628 60.1787 33.0628 60.52C33.0628 60.7973 32.9241 61.192 32.6468 61.704C32.1774 62.4507 31.5801 63.528 30.8548 64.936C30.1508 66.344 29.7988 67.2187 29.7988 67.56C29.7988 67.88 29.8628 68.0827 29.9908 68.168C30.1188 68.232 30.2681 68.2427 30.4388 68.2C30.8014 68.1147 31.1001 67.976 31.3348 67.784C32.2308 67.1013 33.2654 66.0347 34.4388 64.584L34.4708 64.744C34.4494 65.0427 34.2894 65.384 33.9908 65.768C33.7134 66.1307 33.3081 66.6107 32.7748 67.208C31.6228 68.5307 30.5028 69.192 29.4148 69.192C28.5828 69.192 28.1668 68.9147 28.1668 68.36C28.1668 68.1467 28.1988 67.944 28.2628 67.752C28.3481 67.5387 28.8388 66.4933 29.7348 64.616C30.6521 62.7173 31.1108 61.7147 31.1108 61.608C31.1108 61.5013 31.0681 61.448 30.9828 61.448C30.7481 61.448 30.2574 61.7573 29.5108 62.376C28.5508 63.272 27.6334 64.2853 26.7588 65.416C25.9054 66.5253 25.2974 67.592 24.9348 68.616C24.8494 68.8507 24.5721 68.9893 24.1028 69.032C23.6334 69.096 23.3988 69.0427 23.3988 68.872C23.3988 68.8293 23.4521 68.7013 23.5588 68.488C23.6441 68.2533 24.0601 67.208 24.8068 65.352C25.5748 63.496 26.2148 62.024 26.7268 60.936C28.6468 56.6693 30.6948 53.576 32.8708 51.656C34.6414 50.0987 36.5401 49.32 38.5668 49.32C39.7401 49.32 40.3694 49.7787 40.4548 50.696C40.4761 50.8027 40.4868 50.952 40.4868 51.144C40.4868 51.336 40.4441 51.5813 40.3588 51.88C40.3374 51.9653 40.2841 52.008 40.1988 52.008H40.0388C40.0174 52.008 40.0174 51.976 40.0388 51.912C40.0601 51.848 40.0708 51.7733 40.0708 51.688C40.0708 50.856 39.4414 50.44 38.1828 50.44C36.2628 50.44 34.4921 51.144 32.8708 52.552C30.9081 54.28 29.1694 57.1493 27.6548 61.16C27.4414 61.736 27.1428 62.5467 26.7588 63.592C26.3748 64.6373 26.1081 65.352 25.9588 65.736C28.8388 61.9173 30.9934 60.008 32.4228 60.008ZM35.653 65.192C35.333 66.024 35.173 66.8027 35.173 67.528C35.173 68.232 35.6103 68.584 36.485 68.584C36.805 68.584 37.221 68.488 37.733 68.296C38.565 68.0187 39.429 67.4853 40.325 66.696C41.221 65.9067 41.957 65.1387 42.533 64.392C42.597 64.456 42.629 64.5413 42.629 64.648C42.629 64.7547 42.5543 64.9147 42.405 65.128C41.6157 66.216 40.6343 67.176 39.461 68.008C38.2877 68.84 37.093 69.256 35.877 69.256C34.2983 69.256 33.509 68.68 33.509 67.528C33.509 66.6107 33.9997 65.3413 34.981 63.72C35.5357 62.8453 36.325 62.0347 37.349 61.288C38.373 60.52 39.3543 60.136 40.293 60.136C41.2317 60.136 41.701 60.584 41.701 61.48C41.701 62.4187 41.3277 63.1333 40.581 63.624C39.8557 64.0933 39.0237 64.4773 38.085 64.776C37.1677 65.0533 36.357 65.192 35.653 65.192ZM35.909 64.552C36.037 64.552 36.2717 64.552 36.613 64.552C36.9757 64.552 37.4023 64.4773 37.893 64.328C39.109 63.9653 39.8983 63.2827 40.261 62.28C40.3677 61.9813 40.421 61.704 40.421 61.448C40.421 61.1707 40.3357 60.9787 40.165 60.872C39.9943 60.744 39.845 60.68 39.717 60.68C38.3303 60.7013 37.061 61.992 35.909 64.552ZM65.508 51.656C65.4867 51.656 65.4547 51.6347 65.412 51.592C65.3267 51.08 65.0067 50.7173 64.452 50.504C64.196 50.4187 63.9187 50.376 63.62 50.376C63.3213 50.376 62.9907 50.44 62.628 50.568C61.604 50.9307 60.4733 52.2107 59.236 54.408C57.9987 56.6053 56.7187 59.1653 55.396 62.088C55.3747 62.1093 55.1187 62.632 54.628 63.656C53.54 65.9173 52.996 67.24 52.996 67.624C52.996 67.9867 53.124 68.168 53.38 68.168C53.8493 68.168 54.5747 67.688 55.556 66.728C56.5587 65.7467 57.2947 64.9253 57.764 64.264C57.8067 64.3067 57.828 64.4027 57.828 64.552C57.828 64.68 57.6787 64.936 57.38 65.32C55.4813 67.8373 53.7213 69.096 52.1 69.096C51.588 69.096 51.332 68.8933 51.332 68.488C51.332 67.7413 51.748 66.7173 52.58 65.416C51.8333 66.2053 51.0547 66.952 50.244 67.656C49.092 68.5947 48.1213 69.064 47.332 69.064C46.948 69.064 46.756 68.8293 46.756 68.36C46.756 68.2533 46.7667 68.1787 46.788 68.136C46.9373 66.9413 47.428 65.6613 48.26 64.296C49.1133 62.9307 50.0413 61.864 51.044 61.096C51.7267 60.5413 52.548 60.264 53.508 60.264C53.9987 60.264 54.4893 60.264 54.98 60.264C55.3213 59.688 55.8653 58.696 56.612 57.288C57.3587 55.8587 57.892 54.8773 58.212 54.344C60.1533 51.0587 62.2973 49.416 64.644 49.416C64.9427 49.416 65.1987 49.5013 65.412 49.672C65.6467 49.8427 65.7533 50.0773 65.732 50.376L65.668 51.528C65.668 51.6133 65.6147 51.656 65.508 51.656ZM54.34 61.288C54.34 60.8827 54.0627 60.68 53.508 60.68C52.9747 60.68 52.3773 60.9893 51.716 61.608C51.0547 62.2267 50.3293 63.2293 49.54 64.616C48.772 65.9813 48.388 66.9733 48.388 67.592C48.388 67.848 48.4733 67.976 48.644 67.976C49.2627 67.976 50.3613 67.0373 51.94 65.16C53.54 63.2613 54.34 61.9707 54.34 61.288ZM67.1702 64.264C67.2129 64.3067 67.2343 64.392 67.2343 64.52C67.2343 64.648 67.0849 64.9147 66.7863 65.32C64.8876 67.8373 63.1276 69.096 61.5062 69.096C60.9943 69.096 60.7383 68.8933 60.7383 68.488C60.7383 67.7413 61.1543 66.7173 61.9862 65.416C61.2396 66.2053 60.3863 67.016 59.4262 67.848C58.4662 68.6587 57.5702 69.064 56.7382 69.064C56.3542 69.064 56.1622 68.8293 56.1622 68.36C56.1622 68.2533 56.1729 68.1787 56.1942 68.136C56.3436 66.92 56.8342 65.64 57.6662 64.296C59.3302 61.608 61.0583 60.264 62.8503 60.264H66.5303C66.6369 60.264 66.6903 60.3067 66.6903 60.392C66.6903 60.5627 66.5943 60.648 66.4023 60.648C66.1036 60.648 65.7303 61 65.2823 61.704C64.8343 62.3867 64.2369 63.4533 63.4903 64.904C62.7649 66.3333 62.4023 67.24 62.4023 67.624C62.4023 67.9867 62.5516 68.168 62.8503 68.168C63.3409 68.168 64.0236 67.7413 64.8983 66.888C65.3676 66.3973 65.7196 66.0133 65.9543 65.736C66.1889 65.4587 66.3383 65.2773 66.4023 65.192C66.4876 65.1067 66.7436 64.7973 67.1702 64.264ZM63.7463 61.288C63.7463 60.8827 63.4689 60.68 62.9143 60.68C62.3809 60.68 61.7836 60.9893 61.1223 61.608C60.4609 62.2267 59.7356 63.2293 58.9462 64.616C58.1782 65.9813 57.7942 66.9733 57.7942 67.592C57.7942 67.848 57.8796 67.976 58.0502 67.976C58.6689 67.976 59.7676 67.0373 61.3463 65.16C62.9463 63.2613 63.7463 61.9707 63.7463 61.288ZM69.1845 60.232L70.1765 60.264C71.0085 59.1333 71.8405 57.6507 72.6725 55.816C72.8645 55.7947 73.1632 55.6773 73.5685 55.464C73.9738 55.2293 74.2618 55.0267 74.4325 54.856C74.6245 54.664 74.7418 54.568 74.7845 54.568C74.8485 54.568 74.8805 54.6 74.8805 54.664C74.8805 54.7067 74.7952 54.824 74.6245 55.016C74.4538 55.208 74.0272 55.848 73.3445 56.936C72.6832 58.0027 72.0752 59.112 71.5205 60.264H74.1125C74.3258 60.264 74.4432 60.296 74.4645 60.36C74.4858 60.424 74.4112 60.488 74.2405 60.552C74.0912 60.5947 73.9418 60.6373 73.7925 60.68C73.6645 60.7227 73.3658 60.7653 72.8965 60.808C71.8512 60.872 71.2005 61.0853 70.9445 61.448C70.7098 61.7893 70.2938 62.6853 69.6965 64.136C68.5872 66.824 68.4165 68.168 69.1845 68.168C69.8458 68.168 71.0618 67.144 72.8325 65.096L73.4405 64.328C73.4832 64.392 73.5045 64.4987 73.5045 64.648C73.5045 64.776 73.3872 65 73.1525 65.32C71.1898 67.8373 69.4192 69.096 67.8405 69.096C67.3285 69.096 67.0725 68.8933 67.0725 68.488C67.0725 67.976 67.4885 66.888 68.3205 65.224L70.0485 61.352C67.8725 63.9973 66.7632 65.352 66.7205 65.416C66.5712 65.6293 66.4965 65.608 66.4965 65.352C66.4965 65.1813 66.5498 65.032 66.6565 64.904C68.1072 63.0907 69.1098 61.8213 69.6645 61.096C69.4725 61.096 68.8965 61.1493 67.9365 61.256C67.7232 61.256 67.7978 61.0853 68.1605 60.744C68.5445 60.4027 68.8112 60.232 68.9605 60.232H69.1845ZM74.5043 65.192C74.1843 66.024 74.0243 66.8027 74.0243 67.528C74.0243 68.232 74.4616 68.584 75.3363 68.584C75.6562 68.584 76.0722 68.488 76.5842 68.296C77.4163 68.0187 78.2803 67.4853 79.1762 66.696C80.0723 65.9067 80.8083 65.1387 81.3843 64.392C81.4483 64.456 81.4803 64.5413 81.4803 64.648C81.4803 64.7547 81.4056 64.9147 81.2563 65.128C80.4669 66.216 79.4856 67.176 78.3123 68.008C77.1389 68.84 75.9442 69.256 74.7283 69.256C73.1496 69.256 72.3602 68.68 72.3602 67.528C72.3602 66.6107 72.8509 65.3413 73.8322 63.72C74.3869 62.8453 75.1762 62.0347 76.2003 61.288C77.2242 60.52 78.2056 60.136 79.1443 60.136C80.0829 60.136 80.5522 60.584 80.5522 61.48C80.5522 62.4187 80.1789 63.1333 79.4323 63.624C78.7069 64.0933 77.8749 64.4773 76.9363 64.776C76.0189 65.0533 75.2083 65.192 74.5043 65.192ZM74.7603 64.552C74.8883 64.552 75.1229 64.552 75.4643 64.552C75.8269 64.552 76.2536 64.4773 76.7443 64.328C77.9603 63.9653 78.7496 63.2827 79.1123 62.28C79.2189 61.9813 79.2723 61.704 79.2723 61.448C79.2723 61.1707 79.1869 60.9787 79.0163 60.872C78.8456 60.744 78.6963 60.68 78.5683 60.68C77.1816 60.7013 75.9123 61.992 74.7603 64.552Z" fill="#EFEFF1"/>
<circle cx="49" cy="49" r="48.7" stroke="#EFEFF1" stroke-width="0.6"/>
</svg>
